:SAMPLES-PER-SECOND 30
:FULLY-SPECIFIED
:DEGREES
839
root  4.75964 40.9156 -1.641 -15.3242 -89.0675 13.6462
RightUpLeg  -0.926737 -8.71465 -6.67638
RightLeg  4.94149 -8.4073 2.8875
RightFoot  -0.116957 -0.167737 1.69802
RightToes  -4.65663e-010 0 -3.6325e-017
Spine  11.1176 -0.887798 -6.69975
Spine1  3.64663 -7.03819 25.184
HEad  -3.01056 6.24724 -20.3546
LeftShoulder1  2.48247 -12.539 -7.95533
LeftArm  -17.6524 -23.9745 7.65883
LeftForeArm  89.609 -80.0872 -85.2353
LeftHand  -0.244104 0.0205437 5.32207
RightShoulder  7.67391 13.5332 38.9451
RightArm  17.9864 14.8629 12.4093
RightForeArm  33.4538 73.4975 38.0359
RightHand  -0.498481 -0.150001 -11.0683
LeftUpLeg  -1.72922 6.2226 4.16663
LeftLeg  5.65957 7.87126 -2.64705
LeftFoot  -1.56767 0.0679817 -0.687559
LeftToes  4.18335e-011 1.59304e-011 3.38507e-012
840
root  4.70891 40.9284 -1.74619 -13.2063 -88.6319 11.941
RightUpLeg  -1.16629 -8.79806 -6.6547
RightLeg  4.84982 -8.76309 3.03626
RightFoot  -0.179937 -0.141431 1.43435
RightToes  -4.65663e-010 0 -3.6325e-017
Spine  11.1288 0.712102 -5.85739
Spine1  3.13543 -5.3161 25.7895
HEad  -2.69397 1.55987 -20.9733
LeftShoulder1  1.51515 -10.0292 -3.14065
LeftArm  -25.944 -20.5622 13.1652
LeftForeArm  112.317 -79.3815 -110.224
LeftHand  -0.244104 0.0205437 5.32207
RightShoulder  7.67165 13.4378 39.175
RightArm  16.4356 13.8851 10.4607
RightForeArm  37.5812 74.7038 41.7299
RightHand  -0.410961 -0.874885 -10.5303
LeftUpLeg  -1.93309 5.94326 4.19517
LeftLeg  5.18783 7.78097 -2.77422
LeftFoot  -1.37361 0.0887887 -0.923622
LeftToes  4.18335e-011 1.59304e-011 3.38507e-012
841
root  4.63312 40.9416 -1.83223 -12.3742 -88.62 11.3552
RightUpLeg  -1.19305 -8.72162 -6.48564
RightLeg  4.59982 -8.87188 3.10841
RightFoot  -0.154783 -0.121447 1.22885
RightToes  -4.65663e-010 0 -3.6325e-017
Spine  11.3605 2.3014 -4.38498
Spine1  2.81037 -3.37708 25.3701
HEad  -2.55197 -2.86763 -21.4249
LeftShoulder1  0.844253 -6.96227 0.401609
LeftArm  -33.0933 -15.2056 17.4407
LeftForeArm  127.485 -77.3877 -127.404
LeftHand  -0.244104 0.0205437 5.32207
RightShoulder  7.62195 13.2492 39.3794
RightArm  14.649 12.1181 9.23109
RightForeArm  41.6238 75.7301 45.6423
RightHand  -0.375865 -1.22104 -10.3829
LeftUpLeg  -1.87272 5.96465 4.41832
LeftLeg  4.79585 7.78018 -2.96322
LeftFoot  -1.32689 0.109856 -1.16177
LeftToes  4.18335e-011 1.59304e-011 3.38507e-012
842
root  4.53181 40.9577 -1.90515 -10.8426 -88.9604 9.97702
RightUpLeg  -1.07641 -8.52477 -6.20246
RightLeg  4.20309 -8.77931 3.13537
RightFoot  -0.0449393 -0.102546 1.03344
RightToes  -4.65663e-010 0 -3.6325e-017
Spine  11.6798 3.85817 -2.59446
Spine1  2.62738 -1.35298 24.3917
HEad  -2.53709 -6.76285 -21.7946
LeftShoulder1  0.445782 -3.51695 2.33041
LeftArm  -39.1355 -8.38205 19.8585
LeftForeArm  139.346 -74.3583 -140.35
LeftHand  -0.244104 0.0205437 5.32207
RightShoulder  7.55183 12.9757 39.6952
RightArm  12.9234 9.92248 8.33304
RightForeArm  45.7308 76.6245 49.9205
RightHand  -0.365987 -1.36396 -10.4482
LeftUpLeg  -1.61556 6.08197 4.74615
LeftLeg  4.41697 8.00166 -3.14173
LeftFoot  -1.36635 0.130398 -1.407
LeftToes  4.18335e-011 1.59304e-011 3.38507e-012
843
root  4.40069 40.9745 -1.96157 -9.56277 -89.547 8.89822
RightUpLeg  -0.981734 -8.33679 -5.91758
RightLeg  3.75686 -8.43403 3.20533
RightFoot  0.103765 -0.0771028 0.776203
RightToes  -4.65663e-010 0 -3.6325e-017
Spine  11.896 5.28592 -0.42181
Spine1  2.56397 0.712381 22.6648
HEad  -2.46807 -9.99941 -21.9151
LeftShoulder1  0.228696 -0.182253 2.49341
LeftArm  -44.5773 -0.74149 20.4116
LeftForeArm  147.52 -70.4648 -149.62
LeftHand  -0.244104 0.0205437 5.32207
RightShoulder  7.51845 12.6536 40.3674
RightArm  11.2906 7.33173 7.55068
RightForeArm  50.5806 77.4681 54.9846
RightHand  -0.335735 -1.70688 -10.4227
LeftUpLeg  -1.35719 6.11932 5.02438
LeftLeg  4.09154 8.53175 -3.20214
LeftFoot  -1.47729 0.148505 -1.64879
LeftToes  4.18335e-011 1.59304e-011 3.38507e-012
